<svg xmlns="http://www.w3.org/2000/svg" viewBox="0 0 64 64">
  <defs>
    <linearGradient id="g" x1="0" x2="1" y1="0" y2="1">
      <stop offset="0" stop-color="#f97316"/>
      <stop offset="1" stop-color="#fb923c"/>
    </linearGradient>
  </defs>
  <rect x="4" y="4" width="56" height="56" rx="16" fill="#020817"/>
  <rect x="8" y="8" width="48" height="48" rx="16" fill="url(#g)" opacity="0.18"/>
  <path fill="#f97316" d="M22 22h20a2 2 0 0 1 2 2v4c0 6-5 11-12 11s-12-5-12-11v-4a2 2 0 0 1 2-2zm3 4v2c0 4 3 7 7 7s7-3 7-7v-2H25z"/>
  <circle cx="24" cy="42" r="2" fill="#fed7aa"/>
  <circle cx="40" cy="42" r="2" fill="#fed7aa"/>
</svg>